<mxfile host="app.diagrams.net" modified="2023-09-16T16:44:02.285Z" agent="Mozilla/5.0 (Windows NT 10.0; Win64; x64) AppleWebKit/537.36 (KHTML, like Gecko) Chrome/116.0.0.0 Safari/537.36" version="21.7.5" etag="SQRe1EQ3f9vVPS0zyzn8" type="github">
  <diagram name="Trang-1" id="lwjc2NzP6EqRXnKtM01J">
    <mxGraphModel>
      <root>
        <mxCell id="0" />
        <mxCell id="1" parent="0" />
      </root>
    </mxGraphModel>
  </diagram>
</mxfile>
